# xmcd
# Track frame offsets:
# 182
# 9917
# 25157
# 37365
# 49955
# 63592
# 74780
# 84910
# 97967
# 109945
# 120992
# 131717
#
# Disc length: 1918 seconds
# Revision: 1
# Processed by: cddbd v1.4PL0 Copyright (c) Steve Scherf et al.
# Submitted via: VisiTrax 2.9.5.180 - For more info visit www.synapsa.com
#
DISCID=a5077c0c
DTITLE=Various Artist - Number One Country Hits 50's Through The 80's
DYEAR=1993
DGENRE=Country
TTITLE0=Tillis Mel - I Ain't Never
TTITLE1=Mattea Kathy - Eighteen Wheels And A Dozen Roses
TTITLE2=Williams Hank Jr - Eleven Roses
TTITLE3=Rodriquez Johnny - Love Put A Song In My Heart
TTITLE4=Young Faron - It's Four In The Morning
TTITLE5=Miller Roger - King Of The Road
TTITLE6=Statler Brothers - Do You Know You Are My Sunshine
TTITLE7=McEntire Reba - You're The First Time I've Thought About Leaving
TTITLE8=Williams Hank - Take These Chains From My Heart
TTITLE9=Wooley Sheb - That's My Pa
TTITLE10=Van Dyke Leroy - Walk On By
TTITLE11=Hall Tom T - The Year That Clayton Delaney Died
EXTD=
EXTT0=
EXTT1=
EXTT2=
EXTT3=
EXTT4=
EXTT5=
EXTT6=
EXTT7=
EXTT8=
EXTT9=
EXTT10=
EXTT11=
PLAYORDER=
